<svg xmlns="http://www.w3.org/2000/svg" viewBox="0 0 178.3 174.23"><defs><style>.cls-1{isolation:isolate;}.cls-2,.cls-3,.cls-4,.cls-5,.cls-6{font-size:30px;font-family:Sen-Bold, Sen;font-weight:700;}.cls-2{fill:#3e10fc;}.cls-3{mix-blend-mode:multiply;}.cls-3,.cls-4{fill:#b7e4c7;}.cls-5{mix-blend-mode:luminosity;}.cls-5,.cls-6{fill:#f9c80e;}</style></defs><g class="cls-1"><g id="Layer_1" data-name="Layer 1"><text class="cls-2" transform="matrix(-0.2, -0.98, 0.98, -0.2, 28.64, 105)">W</text><text class="cls-2" transform="translate(23.64 78.65) rotate(-76.67)">H</text><text class="cls-2" transform="translate(28.7 57.29) rotate(-55.27)">A</text><text class="cls-2" transform="matrix(0.78, -0.62, 0.62, 0.78, 38.6, 42.56)">T</text><text class="cls-2" transform="translate(52.5 32.1) rotate(-26.21)">’</text><text class="cls-2" transform="matrix(0.97, -0.26, 0.26, 0.97, 58.31, 28.68)">S</text><text class="cls-2" transform="translate(73.18 25.07) rotate(-2.74)"> </text><text class="cls-2" transform="matrix(0.98, 0.18, -0.18, 0.98, 81.22, 24.07)">T</text><text class="cls-2" transform="translate(98.23 26.51) rotate(30.29)">H</text><text class="cls-2" transform="translate(117.19 37.58) rotate(51.47)">A</text><text class="cls-2" transform="translate(128.47 51.32) rotate(68.3)">T</text><text class="cls-3" transform="matrix(-0.2, -0.98, 0.98, -0.2, 30.43, 106.35)">W</text><text class="cls-4" transform="translate(25.42 80) rotate(-76.67)">H</text><text class="cls-4" transform="translate(30.49 58.65) rotate(-55.27)">A</text><text class="cls-4" transform="matrix(0.78, -0.62, 0.62, 0.78, 40.38, 43.91)">T</text><text class="cls-4" transform="translate(54.29 33.45) rotate(-26.21)">’</text><text class="cls-4" transform="matrix(0.97, -0.26, 0.26, 0.97, 60.1, 30.03)">S</text><text class="cls-4" transform="translate(74.96 26.43) rotate(-2.74)"> </text><text class="cls-4" transform="matrix(0.98, 0.18, -0.18, 0.98, 83, 25.42)">T</text><text class="cls-4" transform="translate(100.02 27.86) rotate(30.29)">H</text><text class="cls-4" transform="translate(118.98 38.93) rotate(51.47)">A</text><text class="cls-4" transform="translate(130.26 52.67) rotate(68.3)">T</text><text class="cls-2" transform="matrix(0.65, 0.76, -0.76, 0.65, 17.75, 121.16)">?</text><text class="cls-2" transform="translate(34.37 138.63) rotate(31.34)">S</text><text class="cls-2" transform="translate(55.7 150.58) rotate(10.11)">O</text><text class="cls-2" transform="translate(88.27 154.15) rotate(-14.42)">U</text><text class="cls-2" transform="translate(118.61 144.28) rotate(-39.05)">N</text><text class="cls-2" transform="translate(142.5 122.13) rotate(-63.45)">D</text><text class="cls-2" transform="translate(154.31 94) rotate(-84.83)">?</text><text class="cls-5" transform="matrix(0.65, 0.76, -0.76, 0.65, 19.75, 120.16)">?</text><text class="cls-6" transform="translate(36.37 137.63) rotate(31.34)">S</text><text class="cls-6" transform="translate(57.7 149.58) rotate(10.11)">O</text><text class="cls-6" transform="translate(90.27 153.15) rotate(-14.42)">U</text><text class="cls-6" transform="translate(120.6 143.28) rotate(-39.05)">N</text><text class="cls-6" transform="translate(144.5 121.13) rotate(-63.45)">D</text><text class="cls-6" transform="translate(156.31 93) rotate(-84.83)">?</text></g></g></svg>